<?xml version="1.0" encoding="utf-8"?>
<!-- Generator: Adobe Illustrator 18.0.0, SVG Export Plug-In . SVG Version: 6.00 Build 0)  -->
<!DOCTYPE svg PUBLIC "-//W3C//DTD SVG 1.1//EN" "http://www.w3.org/Graphics/SVG/1.1/DTD/svg11.dtd">
<svg version="1.1" id="Capa_1" xmlns="http://www.w3.org/2000/svg" xmlns:xlink="http://www.w3.org/1999/xlink" x="0px" y="0px"
	 viewBox="0 0 241.5 142" enable-background="new 0 0 241.5 142" xml:space="preserve">
<g>
	<path fill="#FFFFFF" d="M241.5,139.2c0,1.6-1.3,2.8-2.8,2.8H2.8c-1.6,0-2.8-1.3-2.8-2.8V2.8C0,1.3,1.3,0,2.8,0h235.8
		c1.6,0,2.8,1.3,2.8,2.8V139.2z"/>
	<g>
		<path fill="#F0D402" d="M131.9,70.9c0-6.8-5.5-12.3-12.3-12.3c-6.8,0-12.3,5.5-12.3,12.3c0,6.8,5.5,12.3,12.3,12.3
			C126.4,83.2,131.9,77.7,131.9,70.9z"/>
		<g>
			<polygon fill="#00A0C6" points="168.3,55.2 179.2,55.2 179.2,74.2 197.3,56.8 215.3,39.5 197.3,22.1 179.2,4.8 179.2,23.7 
				168.3,23.7 132.7,23.7 22.2,23.7 22.2,55.2 132.7,55.2 			"/>
			<polygon fill="#00A0C6" points="129.7,86.8 58.3,86.8 58.3,67.8 40.2,85.2 22.2,102.5 40.2,119.9 58.3,137.2 58.3,118.3 
				129.7,118.3 168.3,118.3 209.8,118.3 209.8,86.8 168.3,86.8 			"/>
		</g>
	</g>
</g>
</svg>
